<?xml version="1.0" encoding="UTF-8"?>
<svg id="Layer_1" xmlns="http://www.w3.org/2000/svg" version="1.1" viewBox="0 0 2028 586">
  <!-- Generator: Adobe Illustrator 30.2.1, SVG Export Plug-In . SVG Version: 2.1.1 Build 1)  -->
  <defs>
    <style>
      .st0 {
        fill: none;
        opacity: .5;
        stroke: #000;
        stroke-miterlimit: 10;
        stroke-width: 4px;
      }
    </style>
  </defs>
  <rect class="st0" x="-201.6" y="-189" width="395" height="432.6" rx="49.4" ry="49.4"/>
  <rect class="st0" x="50" y="76.7" width="395" height="432.6" rx="49.4" ry="49.4"/>
  <rect class="st0" x="1569.9" y="76.7" width="395" height="432.6" rx="49.4" ry="49.4"/>
  <rect class="st0" x="-201.6" y="342.4" width="395" height="432.6" rx="49.4" ry="49.4"/>
  <rect class="st0" x="301.5" y="-189" width="395" height="432.6" rx="49.4" ry="49.4"/>
  <rect class="st0" x="301.5" y="342.4" width="395" height="432.6" rx="49.4" ry="49.4"/>
  <rect class="st0" x="804.6" y="-189" width="395" height="432.6" rx="49.4" ry="49.4"/>
  <rect class="st0" x="1053.9" y="76.7" width="395" height="432.6" rx="49.4" ry="49.4"/>
  <rect class="st0" x="558.2" y="76.7" width="395" height="432.6" rx="49.4" ry="49.4"/>
  <rect class="st0" x="804.6" y="342.4" width="395" height="432.6" rx="49.4" ry="49.4"/>
  <rect class="st0" x="1307.7" y="-189" width="395" height="432.6" rx="49.4" ry="49.4"/>
  <rect class="st0" x="1834.6" y="-189" width="395" height="432.6" rx="49.4" ry="49.4"/>
  <rect class="st0" x="1307.7" y="342.4" width="395" height="432.6" rx="49.4" ry="49.4"/>
  <rect class="st0" x="1834.6" y="342.4" width="395" height="432.6" rx="49.4" ry="49.4"/>
</svg>