<svg width="1600" height="900" viewBox="0 0 1600 900" fill="none" xmlns="http://www.w3.org/2000/svg">
  <defs>
    <linearGradient id="bg" x1="180" y1="70" x2="1450" y2="840" gradientUnits="userSpaceOnUse">
      <stop stop-color="#3DBBFB"/>
      <stop offset="1" stop-color="#1E6FD1"/>
    </linearGradient>
  </defs>
  <rect width="1600" height="900" rx="36" fill="url(#bg)"/>
  <g opacity="0.22" stroke="#EAF7FF">
    <path d="M0 140H1600"/>
    <path d="M0 320H1600"/>
    <path d="M0 500H1600"/>
    <path d="M0 680H1600"/>
    <path d="M240 0V900"/>
    <path d="M620 0V900"/>
    <path d="M1000 0V900"/>
    <path d="M1380 0V900"/>
  </g>
  <rect x="160" y="160" width="1280" height="580" rx="28" fill="#0D2745" fill-opacity="0.3" stroke="#BDE8FF" stroke-opacity="0.65"/>
  <rect x="250" y="230" width="540" height="440" rx="24" fill="#EAF7FF" fill-opacity="0.94"/>
  <rect x="860" y="230" width="490" height="130" rx="20" fill="#EAF7FF" fill-opacity="0.95"/>
  <rect x="860" y="390" width="490" height="130" rx="20" fill="#EAF7FF" fill-opacity="0.87"/>
  <rect x="860" y="550" width="490" height="120" rx="20" fill="#EAF7FF" fill-opacity="0.8"/>
  <rect x="310" y="300" width="420" height="56" rx="16" fill="#CDEEFF"/>
  <rect x="310" y="390" width="370" height="48" rx="14" fill="#D8F2FF"/>
  <rect x="310" y="470" width="250" height="58" rx="20" fill="#1E6FD1"/>
  <text x="332" y="339" fill="#124784" font-size="30" font-family="Poppins, Arial, sans-serif" font-weight="700">Useful headline first</text>
  <text x="332" y="423" fill="#1861A4" font-size="28" font-family="Poppins, Arial, sans-serif" font-weight="600">One proof point</text>
  <text x="352" y="510" fill="#FFFFFF" font-size="28" font-family="Poppins, Arial, sans-serif" font-weight="700">Clear CTA</text>
  <text x="900" y="312" fill="#124986" font-size="31" font-family="Poppins, Arial, sans-serif" font-weight="600">Transparent sponsored labels</text>
  <text x="900" y="472" fill="#1762A6" font-size="31" font-family="Poppins, Arial, sans-serif" font-weight="600">Compact card structure</text>
  <text x="900" y="622" fill="#1A73BB" font-size="31" font-family="Poppins, Arial, sans-serif" font-weight="600">Single-variable tests</text>
</svg>
