<svg width="1600" height="900" viewBox="0 0 1600 900" fill="none" xmlns="http://www.w3.org/2000/svg">
  <defs>
    <linearGradient id="bg" x1="160" y1="80" x2="1460" y2="860" gradientUnits="userSpaceOnUse">
      <stop stop-color="#3DBBFB"/>
      <stop offset="1" stop-color="#1E6FD1"/>
    </linearGradient>
  </defs>
  <rect width="1600" height="900" rx="36" fill="url(#bg)"/>
  <g opacity="0.24" stroke="#EAF7FF">
    <path d="M0 120H1600"/>
    <path d="M0 300H1600"/>
    <path d="M0 480H1600"/>
    <path d="M0 660H1600"/>
    <path d="M180 0V900"/>
    <path d="M520 0V900"/>
    <path d="M860 0V900"/>
    <path d="M1200 0V900"/>
    <path d="M1440 0V900"/>
  </g>
  <rect x="170" y="180" width="1260" height="540" rx="28" fill="#0F2C52" fill-opacity="0.3" stroke="#B9E6FF" stroke-opacity="0.7"/>
  <rect x="240" y="250" width="500" height="100" rx="18" fill="#EAF7FF" fill-opacity="0.96"/>
  <rect x="240" y="380" width="870" height="88" rx="18" fill="#EAF7FF" fill-opacity="0.92"/>
  <rect x="240" y="500" width="1090" height="88" rx="18" fill="#EAF7FF" fill-opacity="0.86"/>
  <circle cx="1290" cy="300" r="90" fill="#EAF7FF" fill-opacity="0.28"/>
  <text x="270" y="313" fill="#13427F" font-size="44" font-family="Poppins, Arial, sans-serif" font-weight="700">Intent Signal Stack</text>
  <text x="270" y="438" fill="#14518F" font-size="34" font-family="Poppins, Arial, sans-serif" font-weight="600">Recommendation Query + Context Depth + Action Proximity</text>
  <text x="270" y="558" fill="#1761A4" font-size="34" font-family="Poppins, Arial, sans-serif" font-weight="600">Use scoring + frequency caps to preserve trust</text>
</svg>
