<svg width="1600" height="900" viewBox="0 0 1600 900" fill="none" xmlns="http://www.w3.org/2000/svg">
  <defs>
    <linearGradient id="bg" x1="220" y1="60" x2="1450" y2="820" gradientUnits="userSpaceOnUse">
      <stop stop-color="#3DBBFB"/>
      <stop offset="1" stop-color="#1E6FD1"/>
    </linearGradient>
  </defs>
  <rect width="1600" height="900" rx="36" fill="url(#bg)"/>
  <g opacity="0.2" stroke="#EAF7FF">
    <path d="M0 150H1600"/>
    <path d="M0 330H1600"/>
    <path d="M0 510H1600"/>
    <path d="M0 690H1600"/>
    <path d="M220 0V900"/>
    <path d="M560 0V900"/>
    <path d="M900 0V900"/>
    <path d="M1240 0V900"/>
  </g>
  <rect x="160" y="170" width="1280" height="560" rx="30" fill="#0E2A4A" fill-opacity="0.28" stroke="#C8EEFF" stroke-opacity="0.6"/>
  <rect x="230" y="240" width="420" height="420" rx="22" fill="#EAF7FF" fill-opacity="0.9"/>
  <rect x="690" y="240" width="680" height="118" rx="20" fill="#EAF7FF" fill-opacity="0.95"/>
  <rect x="690" y="392" width="680" height="118" rx="20" fill="#EAF7FF" fill-opacity="0.88"/>
  <rect x="690" y="544" width="680" height="118" rx="20" fill="#EAF7FF" fill-opacity="0.82"/>
  <path d="M300 540L390 430L500 470L580 340" stroke="#1E6FD1" stroke-width="14" stroke-linecap="round" stroke-linejoin="round"/>
  <circle cx="300" cy="540" r="14" fill="#1E6FD1"/>
  <circle cx="390" cy="430" r="14" fill="#1E6FD1"/>
  <circle cx="500" cy="470" r="14" fill="#1E6FD1"/>
  <circle cx="580" cy="340" r="14" fill="#1E6FD1"/>
  <text x="260" y="320" fill="#14437F" font-size="38" font-family="Poppins, Arial, sans-serif" font-weight="700">Ad Load vs Retention</text>
  <text x="730" y="315" fill="#11457E" font-size="32" font-family="Poppins, Arial, sans-serif" font-weight="600">Session-stage pacing</text>
  <text x="730" y="467" fill="#155592" font-size="32" font-family="Poppins, Arial, sans-serif" font-weight="600">Adaptive frequency caps</text>
  <text x="730" y="619" fill="#1766A8" font-size="32" font-family="Poppins, Arial, sans-serif" font-weight="600">Retention + click quality review</text>
</svg>
